<?xml version="1.0" encoding="utf-8"?>
<!-- Generator: Adobe Illustrator 28.0.0, SVG Export Plug-In . SVG Version: 6.00 Build 0)  -->
<svg version="1.1" xmlns="http://www.w3.org/2000/svg" xmlns:xlink="http://www.w3.org/1999/xlink" x="0px" y="0px"
	 viewBox="0 0 1459 873" style="enable-background:new 0 0 1459 873;" xml:space="preserve">
<style type="text/css">
	.st0{fill:#272727;stroke:#272727;stroke-width:1;stroke-miterlimit:10;}
</style>
<g id="图层_1">
	<path class="st0" d="M753,5.5h353c119.8,0,217,97.2,217,217v0c0,119.8-97.2,217-217,217"/>
	<path class="st0" d="M1453.5,868.5H1051c-118.5,0-214.5-96-214.5-214.5v0c0-118.5,96-214.5,214.5-214.5h53.7"/>
	<path class="st0" d="M267.5,869.5H6.9v-678c0-102.2,82.8-185,185-185h75.6V869.5z"/>
	<rect x="267.5" y="361.5" class="st0" width="224" height="223"/>
	<path class="st0" d="M581.3,868.5h-89.2c-0.1,0-0.2-0.1-0.2-0.2V121.2c0-63.9,51.8-115.7,115.7-115.7h144.7c0.1,0,0.2,0.1,0.2,0.2
		v691.6C752.5,791.9,675.8,868.5,581.3,868.5z"/>
	
		<image style="overflow:visible;opacity:0.63;" width="1024" height="1024" xlink:href="HR.png"  transform="matrix(2.291 0 0 2.291 4056 -766)">
	</image>
</g>
<g id="图层_2">
</g>
</svg>
